<?xml version="1.0" encoding="iso-8859-1"?>
<!-- Generator: Adobe Illustrator 19.0.0, SVG Export Plug-In . SVG Version: 6.00 Build 0)  -->
<svg version="1.1" id="Layer_1" xmlns="http://www.w3.org/2000/svg" xmlns:xlink="http://www.w3.org/1999/xlink" x="0px" y="0px"
	 viewBox="0 0 512.007 512.007" style="enable-background:new 0 0 512.007 512.007;" xml:space="preserve">
<g transform="translate(0 -1)">
	<g>
		<g>
			<path d="M503.47,188.741h-93.867v-76.8c0-0.089-0.011-0.176-0.013-0.265c-0.004-0.112-0.009-0.222-0.017-0.334
				c-0.024-0.339-0.063-0.673-0.125-1c-0.005-0.027-0.007-0.054-0.012-0.081c-0.074-0.371-0.178-0.731-0.299-1.083
				c-0.025-0.073-0.052-0.144-0.079-0.216c-0.123-0.33-0.262-0.651-0.423-0.961c-0.013-0.026-0.024-0.053-0.038-0.078
				c-0.177-0.331-0.379-0.645-0.597-0.948c-0.05-0.069-0.101-0.137-0.153-0.205c-0.232-0.303-0.476-0.596-0.745-0.865L304.703,3.508
				c-0.268-0.268-0.56-0.511-0.862-0.742c-0.072-0.055-0.144-0.11-0.217-0.163c-0.296-0.212-0.603-0.41-0.926-0.584
				c-0.052-0.028-0.105-0.049-0.157-0.076c-0.275-0.14-0.558-0.264-0.849-0.375c-0.103-0.039-0.205-0.078-0.309-0.113
				c-0.325-0.109-0.655-0.206-0.996-0.275c-0.105-0.022-0.211-0.031-0.316-0.048c-0.24-0.04-0.483-0.072-0.73-0.091
				c-0.163-0.013-0.325-0.021-0.488-0.025c-0.061-0.001-0.121-0.009-0.182-0.009H8.537c-4.71,0-8.533,3.823-8.533,8.533v494.933
				c0,4.71,3.823,8.533,8.533,8.533H401.07c4.71,0,8.533-3.823,8.533-8.533v-93.867h93.867c4.71,0,8.533-3.823,8.533-8.533v-204.8
				C512.004,192.564,508.181,188.741,503.47,188.741z M307.204,30.14l73.267,73.267h-73.267V30.14z M392.537,495.941H17.07V18.074
				h273.067v93.867c0,4.71,3.823,8.533,8.533,8.533h93.867v68.267H42.67c-4.71,0-8.533,3.823-8.533,8.533v204.8
				c0,4.71,3.823,8.533,8.533,8.533h349.867V495.941z M494.937,393.541H51.204V205.807h443.733V393.541z"/>
			<path d="M204.804,239.941c14.114,0,25.6,11.486,25.6,25.6c0,4.71,3.823,8.533,8.533,8.533s8.533-3.823,8.533-8.533
				c0-23.526-19.14-42.667-42.667-42.667c-23.526,0-42.667,19.14-42.667,42.667c0,23.526,19.14,42.667,42.667,42.667
				c14.114,0,25.6,11.486,25.6,25.6c0,14.114-11.486,25.6-25.6,25.6s-25.6-11.486-25.6-25.6c0-4.71-3.823-8.533-8.533-8.533
				s-8.533,3.823-8.533,8.533c0,23.526,19.14,42.667,42.667,42.667c23.526,0,42.667-19.14,42.667-42.667
				c0-23.526-19.14-42.667-42.667-42.667c-14.114,0-25.6-11.486-25.6-25.6C179.204,251.426,190.689,239.941,204.804,239.941z"/>
			<path d="M128.004,231.407c-4.71,0-8.533,3.823-8.533,8.533v102.4c0,9.412-7.654,17.067-17.067,17.067
				c-9.412,0-17.067-7.654-17.067-17.067c0-4.71-3.823-8.533-8.533-8.533s-8.533,3.823-8.533,8.533
				c0,18.825,15.309,34.133,34.133,34.133c18.825,0,34.133-15.309,34.133-34.133v-102.4
				C136.537,235.23,132.714,231.407,128.004,231.407z"/>
			<path d="M315.737,222.874h-8.533c-18.825,0-34.133,15.309-34.133,34.133v85.333c0,18.825,15.309,34.133,34.133,34.133h8.533
				c18.825,0,34.133-15.309,34.133-34.133v-85.333C349.87,238.183,334.562,222.874,315.737,222.874z M332.804,342.341
				c0,9.412-7.654,17.067-17.067,17.067h-8.533c-9.412,0-17.067-7.654-17.067-17.067v-85.333c0-9.412,7.654-17.067,17.067-17.067
				h8.533c9.412,0,17.067,7.654,17.067,17.067V342.341z"/>
			<path d="M381.648,223.207c-3.661,1.05-6.178,4.395-6.178,8.201v136.533c0,4.71,3.823,8.533,8.533,8.533s8.533-3.823,8.533-8.533
				V261.163l69.564,111.3c1.587,2.543,4.352,4.011,7.236,4.011c0.785,0,1.579-0.111,2.355-0.333c3.661-1.05,6.178-4.395,6.178-8.201
				V231.407c0-4.71-3.823-8.533-8.533-8.533s-8.533,3.823-8.533,8.533v106.778l-69.564-111.3
				C389.226,223.65,385.309,222.166,381.648,223.207z"/>
		</g>
	</g>
</g>
<g>
</g>
<g>
</g>
<g>
</g>
<g>
</g>
<g>
</g>
<g>
</g>
<g>
</g>
<g>
</g>
<g>
</g>
<g>
</g>
<g>
</g>
<g>
</g>
<g>
</g>
<g>
</g>
<g>
</g>
</svg>
