<svg height="511.91844pt" viewBox="0 0 511.91844 511.91844" width="511.91844pt" xmlns="http://www.w3.org/2000/svg"><path d="m291.269531 255.960938c0 19.5-15.808593 35.308593-35.308593 35.308593-19.503907 0-35.3125-15.808593-35.3125-35.308593 0-19.503907 15.808593-35.3125 35.3125-35.3125 19.5 0 35.308593 15.808593 35.308593 35.3125zm0 0"/><path d="m.402344 300.097656s11.828125-17.65625 44.929687-21.011718c.707031 6.09375 1.589844 12.09375 2.824219 17.921874-46.167969 34.605469-11.386719 97.542969-11.386719 97.542969s4.238281-21.007812 33.457031-36.722656c2.914063 5.296875 6.003907 10.507813 9.445313 15.539063-28.601563 48.550781 24.011719 92.335937 26.660156 94.453124-.265625-1.589843-3.179687-21.980468 17.035157-46.695312 4.679687 3.792969 9.535156 7.324219 14.566406 10.679688-8.03125 56.410156 58.96875 76.535156 60.910156 77.066406-.882812-1.503906-11.296875-19.070313-2.117188-49.523438 5.800782 1.761719 11.695313 3.207032 17.65625 4.324219 14.300782 55.878906 85.714844 47.847656 85.714844 47.847656s-17.65625-11.832031-21.011718-44.933593c6.09375-.707032 12.09375-1.589844 17.921874-2.824219 34.691407 46.167969 97.542969 11.476562 97.542969 11.476562s-20.917969-4.238281-36.632812-33.636719c5.296875-2.824218 10.417969-6 15.449219-9.355468 48.550781 28.601562 92.335937-24.011719 94.453124-26.660156-1.589843.265624-21.980468 3.179687-46.695312-17.035157 3.792969-4.679687 7.324219-9.535156 10.679688-14.566406 56.410156 8.03125 76.535156-58.96875 77.066406-60.910156-1.503906.882812-19.070313 11.296875-49.523438 2.117187 1.761719-5.800781 3.207032-11.695312 4.324219-17.652344 55.878906-14.300781 47.847656-85.71875 47.847656-85.71875s-11.832031 17.65625-44.933593 21.011719c-.707032-6.09375-1.589844-12.09375-2.824219-17.921875 46.167969-34.691406 11.476562-97.542968 11.476562-97.542968s-4.238281 21.007812-33.546875 36.722656c-2.914062-5.296875-6.003906-10.503906-9.445312-15.539063 29.394531-49.699219-26.746094-94.542969-26.746094-94.542969s4.148438 21.011719-16.949219 46.789063c-4.679687-3.796875-9.535156-7.328125-14.566406-10.683594 8.03125-56.40625-58.96875-76.535156-60.910156-77.0625.882812 1.5 11.296875 19.066407 2.117187 49.519531-5.800781-1.761718-11.695312-3.207031-17.652344-4.324218-14.300781-55.878906-85.71875-47.84375-85.71875-47.84375s17.65625 11.828125 21.011719 44.929687c-6.09375.707031-12.09375 1.589844-17.921875 2.824219-34.691406-46.167969-97.542968-11.472656-97.542968-11.472656s21.007812 4.234375 36.722656 33.542968c-5.296875 2.914063-10.503906 6.003907-15.539063 9.445313-49.699219-29.394531-94.542969 26.746094-94.542969 26.746094s21.011719-4.148438 46.789063 16.949219c-3.796875 4.679687-7.328125 9.535156-10.683594 14.566406-56.40625-8.03125-76.535156 58.96875-77.0625 60.910156 1.5-.882812 19.066407-11.296875 49.519531-2.117188-1.761718 5.800782-3.207031 11.695313-4.324218 17.65625-55.878906 14.300782-47.84375 85.714844-47.84375 85.714844zm255.558594-194.207031c82.878906 0 150.066406 67.1875 150.066406 150.070313 0 82.878906-67.1875 150.066406-150.066406 150.066406-82.882813 0-150.070313-67.1875-150.070313-150.066406.09375-82.84375 67.226563-149.976563 150.070313-150.070313zm0 0"/><path d="m255.960938 388.371094c73.128906 0 132.410156-59.28125 132.410156-132.410156 0-73.132813-59.28125-132.414063-132.410156-132.414063-73.132813 0-132.414063 59.28125-132.414063 132.414063.078125 73.09375 59.316406 132.332031 132.414063 132.410156zm88.273437-134.449219c0-4.878906 3.953125-8.828125 8.828125-8.828125s8.828125 3.949219 8.828125 8.828125c1.386719 36.90625-17.734375 71.558594-49.699219 90.0625-4.359375 2.1875-9.664062.429687-11.851562-3.929687-2.1875-4.355469-.429688-9.660157 3.929687-11.851563 25.960938-15.53125 41.308594-44.058594 39.964844-74.28125zm-114.757813-103.894531c4.875 0 8.828126 3.953125 8.828126 8.828125s-3.953126 8.828125-8.828126 8.828125-8.828124-3.953125-8.828124-8.828125 3.953124-8.828125 8.828124-8.828125zm26.484376 52.964844c29.25 0 52.964843 23.714843 52.964843 52.96875 0 29.25-23.714843 52.964843-52.964843 52.964843-29.253907 0-52.96875-23.714843-52.96875-52.964843.035156-29.242188 23.726562-52.933594 52.96875-52.96875zm-105.933594 50.929687c-1.386719-36.910156 17.738281-71.558594 49.699218-90.0625 2.820313-1.414063 6.179688-1.21875 8.8125.515625 2.636719 1.734375 4.148438 4.742188 3.960938 7.890625-.183594 3.148437-2.03125 5.960937-4.851562 7.375-25.960938 15.53125-41.308594 44.054687-39.964844 74.28125 0 4.875-3.953125 8.824219-8.828125 8.824219s-8.828125-3.949219-8.828125-8.824219zm0 0"/></svg>