<?xml version="1.0" encoding="iso-8859-1"?>
<!-- Generator: Adobe Illustrator 18.1.1, SVG Export Plug-In . SVG Version: 6.00 Build 0)  -->
<svg version="1.1" id="Capa_1" xmlns="http://www.w3.org/2000/svg" xmlns:xlink="http://www.w3.org/1999/xlink" x="0px" y="0px"
	 viewBox="0 0 512.115 512.115" style="enable-background:new 0 0 512.115 512.115;" xml:space="preserve">
<g>
	<path d="M388.792,32.678c0-10.104-21.283-17.666-39.137-22.23C323.307,3.71,290.067,0,256.058,0s-67.249,3.71-93.597,10.447
		c-17.854,4.564-39.138,12.127-39.138,22.23c0,0.581,0,23.993,0,23.993c0,8.271,6.729,15,15,15c0,0,10.007,0,13.342,0
		c5,0,7.451,4.165,7.451,4.165l39.37,70.581c2.258,4.048,4.238,11.664,4.238,16.298v38.396c0,6.814,4.532,11.761,10.776,11.761
		c0,0,0.001,0,0.001,0c1.772,0,3.586-0.399,5.389-1.188l78.343-34.282c6.931-3.032,12.157-10.186,12.157-16.638
		c0-3.594,1.98-10.298,4.238-14.346l39.913-71.553c0,0,1.999-3.193,5.499-3.193c3.688,0,14.751,0,14.751,0c8.271,0,15-6.729,15-15
		C388.792,56.671,388.792,33.259,388.792,32.678z"/>
	<path d="M298.614,338.55c-1.773,0-3.586,0.399-5.389,1.188l-78.343,34.282c-6.817,2.982-12.157,11.148-12.157,18.589v19.094
		c0,6.814,4.532,11.761,10.776,11.761c0,0,0.001,0,0.001,0c1.772,0,3.586-0.399,5.389-1.189l78.343-34.282
		c6.817-2.982,12.157-11.148,12.157-18.589V350.31C309.39,343.496,304.858,338.55,298.614,338.55z"/>
	<path d="M298.614,268.353c-1.773,0-3.586,0.399-5.389,1.188l-78.343,34.282c-6.817,2.982-12.157,11.148-12.157,18.589v19.094
		c0,6.815,4.532,11.761,10.776,11.761c0,0,0.001,0,0.001,0c1.772,0,3.586-0.4,5.389-1.189l78.343-34.282
		c6.817-2.983,12.157-11.148,12.157-18.589v-19.094C309.39,273.299,304.858,268.353,298.614,268.353z"/>
	<path d="M298.614,408.748c-1.773,0-3.586,0.399-5.389,1.189l-78.343,34.282c-6.051,2.648-12.157,7.77-12.157,13.243
		c0,4.603,4.376,11.154,8.442,15.291l34.315,34.925c2.812,2.861,6.568,4.437,10.575,4.437c4.007,0,7.763-1.576,10.575-4.438
		l34.315-34.923c4.813-4.898,8.442-13.771,8.442-20.638v-31.608C309.39,413.694,304.858,408.748,298.614,408.748z"/>
	<path d="M298.614,198.154c-1.773,0-3.586,0.399-5.389,1.188l-78.343,34.282c-6.817,2.982-12.157,11.148-12.157,18.589v19.094
		c0,6.814,4.532,11.761,10.776,11.761c0,0,0.001,0,0.001,0c1.772,0,3.586-0.399,5.389-1.189l78.343-34.282
		c6.817-2.982,12.157-11.148,12.157-18.589v-19.094C309.39,203.1,304.858,198.154,298.614,198.154z"/>
</g>
<g>
</g>
<g>
</g>
<g>
</g>
<g>
</g>
<g>
</g>
<g>
</g>
<g>
</g>
<g>
</g>
<g>
</g>
<g>
</g>
<g>
</g>
<g>
</g>
<g>
</g>
<g>
</g>
<g>
</g>
</svg>
